<svg width="435" height="315" viewBox="0 0 435 315" fill="none" xmlns="http://www.w3.org/2000/svg">
<g clip-path="url(#clip0_5501_660)">
<path d="M271.107 314.832C275.389 305.559 279.668 296.148 281.527 286.101C283.385 276.053 282.605 265.149 277.282 256.434C271.96 247.719 261.48 241.81 251.478 243.78C243.264 245.398 236.668 251.884 232.806 259.331C228.944 266.777 227.394 275.176 225.892 283.433C225.407 274.053 224.893 264.521 221.785 255.66C218.677 246.799 212.557 238.542 203.834 235.113C195.112 231.684 183.766 234.38 179.169 242.565C172.692 254.095 181.28 270.269 173.832 281.195C172.555 270.235 161.124 261.577 150.26 263.339C139.396 265.102 131.271 276.933 133.506 287.737C134.836 294.165 139.211 299.633 144.442 303.584C149.672 307.534 155.755 312.113 161.773 314.702L271.107 314.832Z" fill="#F2F2F2"/>
<path d="M139.211 271.082C147.84 274.107 156.55 277.165 164.428 281.893C171.489 286.131 177.777 291.836 181.748 299.143C183.924 303.062 185.216 307.413 185.533 311.888C185.59 312.823 187.05 312.83 186.993 311.888C186.482 303.555 182.432 295.929 176.823 289.898C170.674 283.286 162.705 278.77 154.477 275.267C149.599 273.189 144.6 271.424 139.599 269.671C138.71 269.36 138.328 270.773 139.211 271.082Z" fill="white"/>
<path d="M188.988 236.566C194.29 245.422 198.536 254.871 201.638 264.721C204.747 274.567 206.705 284.741 207.473 295.04C207.898 300.805 207.945 306.592 207.612 312.363C207.558 313.304 209.018 313.301 209.072 312.363C209.661 301.958 209.033 291.519 207.201 281.26C205.371 271.003 202.364 260.992 198.24 251.427C195.925 246.055 193.255 240.843 190.249 235.827C190.148 235.666 189.988 235.551 189.804 235.506C189.62 235.461 189.426 235.49 189.263 235.586C189.099 235.682 188.979 235.837 188.928 236.02C188.877 236.203 188.898 236.399 188.988 236.566Z" fill="white"/>
<path d="M260.444 244.973C252.944 261.867 247.666 279.667 244.743 297.925C243.923 303.053 243.287 308.207 242.837 313.385C242.756 314.324 244.216 314.318 244.297 313.385C245.887 295.168 249.814 277.233 255.981 260.023C257.714 255.185 259.622 250.414 261.704 245.712C262.082 244.859 260.825 244.113 260.444 244.973Z" fill="white"/>
<path d="M51.6185 313.738C36.6611 309.835 23.4439 301.01 14.0856 288.678C4.72727 276.345 -0.230178 261.22 0.00791836 245.726C0.0672361 241.866 0.47208 237.925 2.09067 234.422C3.70925 230.918 6.71576 227.888 10.4765 227.058C14.5809 226.152 18.9119 228.004 21.9706 230.894C25.0293 233.783 27.0348 237.596 28.88 241.381C39.9941 264.183 48.4382 288.65 51.5997 313.83L51.6185 313.738Z" fill="#F2F2F2"/>
<path d="M8.61454 227.819L16.4039 245.563L24.1932 263.307C26.6601 268.926 29.1223 274.548 31.6721 280.13C34.1995 285.664 36.8135 291.159 39.6022 296.565C42.3869 301.964 45.3465 307.274 48.559 312.429C48.9591 313.071 49.363 313.711 49.771 314.348C50.0533 314.789 50.7589 314.38 50.4746 313.936C47.2005 308.819 44.1836 303.54 41.354 298.164C38.5214 292.783 35.8739 287.305 33.3242 281.783C30.7609 276.232 28.2962 270.636 25.838 265.038C23.2505 259.145 20.6634 253.252 18.0769 247.359L10.2875 229.615L9.31819 227.407C9.10739 226.927 8.40507 227.342 8.61454 227.819Z" fill="white"/>
<path d="M48.3692 313.861C39.5526 315.883 30.3142 314.879 22.1349 311.009C13.9555 307.139 7.30896 300.628 3.26062 292.52C2.25195 290.499 1.40087 288.344 1.29792 286.087C1.19497 283.83 1.94002 281.443 3.66905 279.994C5.55603 278.413 8.30325 278.202 10.6693 278.874C13.0354 279.547 15.1032 280.983 17.0805 282.449C28.9905 291.279 39.9626 301.697 48.3842 313.914L48.3692 313.861Z" fill="#F2F2F2"/>
<path d="M2.90718 280.893L11.7291 287.997L20.551 295.101C23.3449 297.351 26.137 299.603 28.964 301.811C31.7661 304 34.6029 306.145 37.5065 308.198C40.4059 310.247 43.3724 312.203 46.4284 314.01C46.809 314.235 47.1909 314.457 47.5743 314.678C47.8396 314.83 48.0958 314.427 47.8286 314.273C44.7508 312.503 41.7633 310.579 38.8467 308.554C35.9269 306.526 33.0774 304.399 30.2668 302.222C27.4413 300.034 24.6548 297.796 21.8711 295.555C18.941 293.195 16.011 290.836 13.0812 288.476L4.25933 281.372L3.16149 280.488C2.92275 280.296 2.66991 280.702 2.90718 280.893Z" fill="white"/>
<path d="M423.855 315H21.2529C21.1767 315 21.1012 314.985 21.0307 314.956C20.9602 314.927 20.8961 314.884 20.8421 314.83C20.7881 314.777 20.7453 314.712 20.7161 314.642C20.6869 314.571 20.6718 314.496 20.6718 314.419C20.6718 314.343 20.6869 314.267 20.7161 314.196C20.7453 314.126 20.7881 314.062 20.8421 314.008C20.8961 313.954 20.9602 313.911 21.0307 313.882C21.1012 313.853 21.1767 313.838 21.2529 313.838H423.855C424.009 313.838 424.156 313.899 424.265 314.008C424.374 314.117 424.435 314.265 424.435 314.419C424.435 314.573 424.374 314.721 424.265 314.83C424.156 314.939 424.009 315 423.855 315Z" fill="#3F3D56"/>
<path d="M413.279 256.796H386.022C386.022 257.12 385.894 257.43 385.665 257.659C385.437 257.887 385.128 258.016 384.805 258.016H358.049C357.671 258.301 357.327 258.629 357.023 258.992C356.108 260.086 355.608 261.468 355.611 262.895V263.871C355.612 265.488 356.253 267.039 357.393 268.183C358.534 269.327 360.081 269.969 361.694 269.97H413.279C414.892 269.968 416.438 269.325 417.579 268.182C418.719 267.039 419.361 265.488 419.362 263.871V262.895C419.36 261.278 418.718 259.728 417.578 258.585C416.438 257.442 414.892 256.799 413.279 256.796Z" fill="#3F3D56"/>
<path d="M390.891 269.728H384.564V314.615H390.891V269.728Z" fill="#3F3D56"/>
<path d="M408.897 314.392C408.897 315.077 399.31 314.657 387.484 314.657C375.658 314.657 366.072 315.077 366.072 314.392C366.072 313.707 375.658 308.272 387.484 308.272C399.31 308.272 408.897 313.707 408.897 314.392Z" fill="#3F3D56"/>
<path d="M412.087 258.202L411.026 251.547C410.891 250.708 410.431 249.957 409.745 249.458C409.059 248.96 408.203 248.754 407.366 248.887L396.422 250.639L377.676 253.64L371.578 254.615H384.805C385.128 254.616 385.437 254.744 385.665 254.973C385.894 255.202 386.022 255.512 386.022 255.835V256.796C386.022 257.12 385.894 257.43 385.665 257.659C385.437 257.887 385.128 258.016 384.805 258.016H351.144C350.674 258.236 350.267 258.572 349.961 258.992C349.702 259.333 349.515 259.724 349.412 260.14C349.308 260.556 349.29 260.989 349.358 261.412L349.659 263.305L350.024 265.603L350.419 268.072C350.553 268.909 351.012 269.658 351.696 270.155C352.381 270.653 353.234 270.858 354.068 270.726L362.765 269.336L387.847 265.32L409.435 261.866C410.269 261.729 411.017 261.268 411.514 260.581C412.01 259.895 412.216 259.04 412.087 258.202Z" fill="#AA0E0D"/>
<path d="M362.098 258.992C361.778 258.566 361.354 258.23 360.867 258.016H351.562C351.073 258.228 350.647 258.565 350.326 258.992C349.893 259.548 349.658 260.233 349.659 260.939V298.122C349.661 298.969 349.997 299.781 350.594 300.38C351.192 300.979 352.002 301.317 352.847 301.318H359.577C360.422 301.317 361.233 300.979 361.83 300.38C362.428 299.781 362.764 298.969 362.765 298.122V260.939C362.765 260.233 362.531 259.548 362.098 258.992Z" fill="#AA0E0D"/>
<path d="M382.353 195.662L382.289 195.579L378.114 190.422C377.892 190.145 377.623 189.909 377.321 189.724C377.16 189.615 376.987 189.526 376.805 189.46C376.538 189.353 376.258 189.284 375.973 189.255C375.782 189.235 375.59 189.232 375.398 189.246C375.395 189.246 375.391 189.248 375.389 189.251C374.743 189.298 374.128 189.543 373.627 189.953L365.057 196.92L354.044 205.878L337.61 219.247L336.413 220.223H357.207L358.409 219.247L362.385 216.012L362.668 215.788L381.871 200.17L381.885 200.16C382.281 199.841 382.593 199.431 382.796 198.965C382.929 198.659 383.014 198.335 383.049 198.004C383.093 197.587 383.054 197.165 382.935 196.763C382.815 196.361 382.617 195.987 382.353 195.662Z" fill="#AA0E0D"/>
<path d="M382.289 195.579C382.021 194.264 381.425 193.039 380.557 192.017C379.692 190.988 378.577 190.198 377.321 189.724C377.126 189.651 376.936 189.582 376.742 189.529C376.302 189.398 375.853 189.303 375.398 189.246C375.395 189.246 375.391 189.248 375.389 189.251C373.341 189.013 371.282 189.584 369.646 190.841L354.823 202.2C354.508 202.482 354.253 202.825 354.073 203.208C353.894 203.591 353.793 204.006 353.777 204.429C353.753 204.927 353.845 205.423 354.044 205.878C354.093 205.981 354.146 206.083 354.205 206.181C354.318 206.379 354.456 206.563 354.614 206.727L356.988 209.401L362.512 215.612L362.668 215.788L363.023 216.193C363.306 216.504 363.647 216.755 364.027 216.934C364.407 217.112 364.818 217.213 365.237 217.232C365.656 217.25 366.075 217.186 366.469 217.042C366.863 216.898 367.225 216.677 367.534 216.393L380.318 202.624C380.982 201.909 381.509 201.077 381.871 200.17C382.455 198.713 382.6 197.117 382.289 195.579Z" fill="#2F2E41"/>
<path d="M387.941 177.911C401.412 177.911 412.333 166.963 412.333 153.457C412.333 139.951 401.412 129.002 387.941 129.002C374.47 129.002 363.549 139.951 363.549 153.457C363.549 166.963 374.47 177.911 387.941 177.911Z" fill="#AA0E0D"/>
<path d="M397.088 254.835L396.422 250.639L396.028 248.175C395.893 247.338 395.433 246.588 394.748 246.09C394.062 245.592 393.208 245.388 392.373 245.521L374.644 248.356L369.836 249.127L368.863 249.283V254.615H384.805C385.128 254.616 385.437 254.744 385.665 254.973C385.894 255.202 386.022 255.512 386.022 255.835V256.796C386.022 257.12 385.894 257.43 385.665 257.659C385.437 257.888 385.128 258.016 384.805 258.016H334.354C334.354 258.026 334.359 258.036 334.359 258.045L334.661 259.939L335.42 264.701C335.554 265.537 336.014 266.286 336.698 266.784C337.382 267.282 338.235 267.487 339.07 267.355L347.766 265.964L349.659 265.662L350.024 265.603L362.765 263.564L371.432 262.173L385.185 259.973L385.389 259.939L394.436 258.494C395.271 258.36 396.019 257.9 396.516 257.214C397.013 256.528 397.219 255.673 397.088 254.835Z" fill="#AA0E0D"/>
<path d="M421.139 236.89C421.139 256.826 419.119 268.75 387.973 265.335C387.93 265.33 387.891 265.325 387.847 265.32C382.292 264.77 376.798 263.717 371.432 262.173C368.644 261.357 365.934 260.292 363.334 258.992C362.721 258.68 362.132 258.353 361.553 258.016H384.805C385.128 258.016 385.437 257.888 385.665 257.659C385.894 257.43 386.022 257.12 386.022 256.797V255.835C386.022 255.512 385.894 255.202 385.665 254.973C385.437 254.744 385.128 254.616 384.805 254.616H368.863V223.799C368.861 222.851 368.485 221.942 367.816 221.272C367.148 220.602 366.241 220.224 365.296 220.223H352.326C352.438 219.901 352.55 219.574 352.672 219.247C353.889 215.872 355.331 212.582 356.988 209.401C359.259 204.984 361.962 200.803 365.057 196.921C367.212 194.215 369.631 191.732 372.279 189.509C377.16 185.469 382.474 182.971 387.866 182.971C407.751 182.971 421.139 216.954 421.139 236.89Z" fill="#2F2E41"/>
<path d="M388.454 162.52L388.479 161.607C386.783 161.559 385.288 161.453 384.165 160.63C383.846 160.383 383.585 160.071 383.397 159.714C383.21 159.357 383.102 158.963 383.079 158.561C383.06 158.314 383.097 158.067 383.188 157.838C383.279 157.608 383.422 157.403 383.605 157.238C384.351 156.607 385.551 156.811 386.425 157.213L387.179 157.56L385.733 146.963L384.83 147.087L386.06 156.101C385.557 155.914 385.014 155.856 384.483 155.932C383.951 156.009 383.447 156.218 383.016 156.54C382.727 156.794 382.5 157.111 382.353 157.467C382.206 157.823 382.143 158.208 382.169 158.593C382.195 159.134 382.34 159.663 382.592 160.142C382.843 160.621 383.197 161.04 383.627 161.368C385.071 162.425 386.946 162.478 388.454 162.52Z" fill="#2F2E41"/>
<path d="M380.364 147.865H375.455V148.778H380.364V147.865Z" fill="#2F2E41"/>
<path d="M395.86 147.865H390.95V148.778H395.86V147.865Z" fill="#2F2E41"/>
<path d="M407.408 146.737C405.511 143.874 402.173 142.661 398.881 142.366C395.176 142.033 391.596 142.75 387.979 143.445C383.998 144.211 379.785 144.928 375.773 143.96C373.999 143.548 372.341 142.738 370.924 141.59C369.507 140.443 368.369 138.988 367.594 137.335C366.126 134.11 365.809 130.477 366.698 127.046C367.638 123.396 369.971 120.186 372.8 117.76C378.573 112.81 386.385 110.586 393.899 110.795C401.385 110.989 408.62 113.539 414.579 118.085C420.548 122.795 424.749 129.395 426.495 136.807C428.321 144.158 427.726 151.904 424.799 158.888C423.155 162.712 420.777 166.16 418.942 169.888C417.233 173.359 415.918 177.394 416.981 181.266C417.913 184.663 420.652 187.681 424.09 188.604C425.655 189.015 427.31 188.906 428.807 188.293C430.304 187.681 431.563 186.597 432.393 185.205C434.111 182.488 434.153 178.929 431.572 176.735C430.921 176.173 430.163 175.749 429.344 175.49C428.525 175.231 427.662 175.141 426.807 175.226C425.953 175.312 425.124 175.571 424.372 175.987C423.62 176.404 422.961 176.97 422.434 177.65C421.387 179.013 420.918 180.735 421.13 182.443C421.257 183.305 419.94 183.678 419.811 182.807C419.503 181.001 419.845 179.145 420.775 177.568C421.705 175.991 423.163 174.796 424.89 174.197C426.617 173.597 428.499 173.632 430.203 174.294C431.906 174.957 433.32 176.204 434.192 177.814C435.748 180.747 434.909 184.286 432.933 186.793C431.914 188.129 430.532 189.142 428.954 189.711C427.375 190.28 425.667 190.381 424.033 190.002C420.437 189.169 417.495 186.304 416.112 182.937C414.572 179.188 415.277 175.005 416.779 171.367C418.402 167.435 420.812 163.909 422.718 160.12C424.443 156.695 425.541 152.988 425.96 149.175C426.797 141.517 425.063 133.798 421.033 127.238C416.926 120.781 410.656 116.004 403.35 113.765C396.098 111.428 388.268 111.636 381.149 114.353C374.202 117.098 367.493 123.079 367.574 131.112C367.608 134.543 368.878 138.042 371.5 140.331C374.633 143.066 378.995 143.3 382.934 142.873C386.897 142.444 390.746 141.283 394.726 140.987C398.188 140.73 401.924 140.997 405.015 142.722C406.454 143.527 407.68 144.667 408.588 146.045C409.077 146.782 407.893 147.47 407.408 146.737Z" fill="#2F2E41"/>
<path d="M402.442 202.653L400.51 201.307L396.913 198.804C396.218 198.322 395.36 198.136 394.528 198.287C393.696 198.438 392.958 198.913 392.475 199.609L380.751 216.525L369.836 232.274L368.863 233.679V254.615H368.95C369.709 254.54 370.415 254.194 370.941 253.64C371.053 253.523 371.156 253.398 371.247 253.264L374.644 248.356L383.039 236.241L391.74 223.692L392.568 222.497L403.235 207.103C403.293 207.022 403.347 206.937 403.395 206.849C403.444 206.766 403.488 206.679 403.527 206.591C403.833 205.911 403.892 205.145 403.694 204.426C403.495 203.707 403.052 203.08 402.442 202.653Z" fill="#AA0E0D"/>
<path d="M402.476 195.959C402.132 195.733 401.77 195.534 401.395 195.364C399.733 194.6 397.858 194.434 396.088 194.892C394.317 195.35 392.758 196.406 391.672 197.882L380.596 212.939C380.373 213.297 380.224 213.696 380.157 214.113C380.09 214.53 380.106 214.956 380.205 215.367C380.304 215.777 380.483 216.164 380.732 216.504C380.981 216.844 381.296 217.132 381.657 217.349L391.74 223.692L391.867 223.77L392.373 224.087C393.097 224.526 393.964 224.659 394.786 224.458C395.608 224.257 396.317 223.738 396.757 223.014L404.578 207.45L404.709 207.191L404.714 207.186L405.196 206.215C406.074 204.468 406.283 202.459 405.781 200.569C405.28 198.678 404.104 197.038 402.476 195.959Z" fill="#2F2E41"/>
<path d="M334.661 258.016V294.751C334.662 295.598 334.998 296.41 335.596 297.009C336.193 297.608 337.003 297.945 337.848 297.946H344.579C345.424 297.945 346.234 297.608 346.831 297.009C347.429 296.41 347.765 295.598 347.766 294.751V258.016H334.661Z" fill="#AA0E0D"/>
<path d="M384.805 253.64H369.836V223.799C369.835 222.592 369.356 221.435 368.505 220.582C367.654 219.728 366.499 219.248 365.296 219.247H309.783C308.579 219.247 307.424 219.727 306.571 220.58C305.719 221.434 305.24 222.592 305.238 223.799V254.44C305.24 255.647 305.719 256.805 306.571 257.659C307.424 258.512 308.579 258.992 309.783 258.992H384.805C384.883 258.992 384.956 258.987 385.029 258.982C385.097 258.977 385.166 258.963 385.234 258.953C385.73 258.852 386.177 258.582 386.498 258.189C386.819 257.796 386.995 257.304 386.995 256.796V255.835C386.995 255.253 386.764 254.694 386.354 254.283C385.943 253.871 385.386 253.64 384.805 253.64ZM384.805 258.016H309.783C308.837 258.016 307.929 257.639 307.26 256.968C306.59 256.298 306.213 255.389 306.211 254.44V223.799C306.213 222.85 306.59 221.941 307.26 221.27C307.929 220.6 308.837 220.223 309.783 220.223H365.296C366.241 220.224 367.148 220.601 367.816 221.272C368.485 221.942 368.861 222.851 368.863 223.799V254.615H384.805C385.128 254.616 385.437 254.744 385.665 254.973C385.894 255.202 386.022 255.512 386.022 255.835V256.796C386.022 257.12 385.894 257.43 385.665 257.659C385.437 257.887 385.128 258.016 384.805 258.016Z" fill="#3F3D56"/>
<path d="M337.538 242.872C339.604 242.872 341.28 241.192 341.28 239.12C341.28 237.048 339.604 235.368 337.538 235.368C335.471 235.368 333.795 237.048 333.795 239.12C333.795 241.192 335.471 242.872 337.538 242.872Z" fill="#AA0E0D"/>
<path d="M59.3694 176.3C73.7537 176.3 85.4145 164.609 85.4145 150.188C85.4145 135.766 73.7537 124.075 59.3694 124.075C44.9851 124.075 33.3243 135.766 33.3243 150.188C33.3243 164.609 44.9851 176.3 59.3694 176.3Z" fill="#AA0E0D"/>
<path d="M54.2922 248.419H47.1094C46.2707 248.42 45.4666 248.754 44.8735 249.349C44.2805 249.944 43.947 250.75 43.9462 251.591V311.608C43.947 312.449 44.2805 313.255 44.8735 313.85C45.4666 314.444 46.2707 314.779 47.1094 314.779H54.2922C55.1309 314.779 55.935 314.444 56.5281 313.85C57.1211 313.255 57.4547 312.449 57.4555 311.608V251.591C57.4547 250.75 57.1211 249.944 56.5281 249.349C55.935 248.754 55.1309 248.42 54.2922 248.419Z" fill="#2F2E41"/>
<path d="M69.4708 248.419H62.2879C61.4493 248.42 60.6451 248.754 60.0521 249.349C59.459 249.944 59.1255 250.75 59.1247 251.591V311.608C59.1255 312.449 59.459 313.255 60.0521 313.85C60.6451 314.444 61.4493 314.779 62.2879 314.779H69.4708C69.8862 314.779 70.2975 314.697 70.6813 314.538C71.0651 314.379 71.4138 314.145 71.7076 313.85C72.0013 313.556 72.2343 313.206 72.3933 312.822C72.5522 312.437 72.634 312.024 72.634 311.608V251.591C72.634 251.174 72.5522 250.762 72.3933 250.377C72.2343 249.992 72.0013 249.643 71.7076 249.348C71.4138 249.054 71.0651 248.82 70.6813 248.661C70.2975 248.501 69.8862 248.419 69.4708 248.419Z" fill="#2F2E41"/>
<path d="M74.6731 189.992C72.1559 186.731 68.6848 184.34 64.7453 183.154C60.8059 181.968 56.5952 182.046 52.7023 183.378C48.8095 184.71 45.4293 187.228 43.0347 190.581C40.64 193.934 39.3508 197.954 39.3472 202.078V255.23C39.3453 255.392 39.3583 255.554 39.3862 255.713C39.5017 256.526 39.9058 257.271 40.5244 257.809C41.143 258.348 41.9345 258.645 42.7538 258.645H75.3935C76.2964 258.644 77.1618 258.283 77.8003 257.643C78.4387 257.003 78.7982 256.135 78.8001 255.23V202.078C78.8062 197.701 77.3536 193.447 74.6731 189.992Z" fill="#2F2E41"/>
<path d="M81.3638 161.731L81.3367 160.755C83.1474 160.705 84.7438 160.591 85.9433 159.712C86.2833 159.449 86.5629 159.115 86.7628 158.734C86.9628 158.353 87.0785 157.933 87.1022 157.503C87.1232 157.24 87.0836 156.976 86.9863 156.731C86.889 156.486 86.7366 156.267 86.5411 156.09C85.7449 155.416 84.4636 155.634 83.5297 156.064L82.7244 156.434L84.2687 145.119L85.233 145.252L83.9194 154.876C85.1883 154.502 86.3641 154.663 87.1694 155.345C87.4786 155.616 87.7212 155.954 87.8783 156.335C88.0353 156.715 88.1026 157.126 88.0747 157.537C88.0463 158.115 87.8922 158.679 87.6232 159.191C87.3542 159.703 86.9767 160.15 86.5174 160.5C84.9762 161.629 82.9732 161.686 81.3638 161.731Z" fill="#2F2E41"/>
<path d="M78.6977 146.082H73.4557V147.057H78.6977V146.082Z" fill="#2F2E41"/>
<path d="M51.7326 190.744C51.4516 190.436 51.1125 190.188 50.7348 190.013C50.3572 189.838 49.9486 189.739 49.5329 189.724L43.8732 189.49L42.3596 189.426C41.5216 189.392 40.7042 189.692 40.0867 190.261C39.4691 190.83 39.1017 191.621 39.0649 192.461L38.1696 214.085L36.588 252.43C36.5557 253.23 36.8261 254.013 37.3449 254.622C37.8638 255.231 38.5929 255.62 39.3862 255.713C39.4642 255.723 39.5371 255.728 39.615 255.733L43.9462 255.913L46.7931 256.031C47.0211 256.041 47.2496 256.026 47.4744 255.987C48.0689 255.88 48.6209 255.606 49.0657 255.196C49.3726 254.915 49.6205 254.575 49.7951 254.196C49.9697 253.817 50.0675 253.408 50.0828 252.991L50.2726 248.419L51.6694 214.602L52.5647 193.022C52.5997 192.182 52.3003 191.363 51.7326 190.744Z" fill="#AA0E0D"/>
<path d="M47.5863 186.011C46.9814 185.883 46.3648 185.819 45.7466 185.821C43.3597 185.824 41.0715 186.776 39.3837 188.468C37.6959 190.16 36.7465 192.454 36.7436 194.847V211.436C36.7449 211.961 36.8759 212.478 37.1246 212.94C37.3734 213.402 37.7324 213.796 38.1696 214.085C38.526 214.321 38.9268 214.48 39.3472 214.554C39.5317 214.589 39.719 214.607 39.9068 214.607H51.5864C51.6141 214.608 51.6419 214.607 51.6693 214.602C52.4932 214.581 53.2762 214.238 53.8515 213.647C54.4269 213.055 54.7492 212.262 54.7496 211.436V194.847C54.747 192.774 54.0339 190.765 52.7298 189.156C51.4257 187.548 49.6098 186.437 47.5863 186.011Z" fill="#2F2E41"/>
<path d="M109.965 233.255C109.202 232.86 108.602 232.207 108.273 231.411C107.943 230.616 107.905 229.729 108.164 228.908L110.933 220.072L110.126 219.398L88.8736 201.77L74.6731 189.992L72.9455 188.558C72.2995 188.022 71.4675 187.765 70.6325 187.843C69.7975 187.922 69.0278 188.33 68.4928 188.977L63.9133 194.53C63.6478 194.85 63.4479 195.22 63.3252 195.618C63.2025 196.016 63.1593 196.434 63.1982 196.849C63.2371 197.264 63.3572 197.667 63.5518 198.035C63.7463 198.403 64.0113 198.729 64.3318 198.994L78.8001 210.997L80.4449 212.358L110.457 237.251C111.012 237.713 111.708 237.971 112.429 237.982C113.151 237.992 113.854 237.755 114.423 237.309C114.579 237.187 114.723 237.047 114.851 236.895C114.872 236.875 114.891 236.854 114.909 236.831L115.488 236.129L109.965 233.255Z" fill="#AA0E0D"/>
<path d="M87.8516 198.384L75.048 187.88C74.1332 187.129 73.0798 186.566 71.9479 186.223C70.8161 185.88 69.628 185.764 68.4515 185.882C67.275 185.999 66.1331 186.348 65.091 186.908C64.0489 187.468 63.127 188.229 62.378 189.146C61.629 190.063 61.0675 191.119 60.7256 192.254C60.3837 193.389 60.2681 194.58 60.3853 195.759C60.6221 198.142 61.7931 200.332 63.6408 201.848L76.4445 212.353C77.0085 212.816 77.7148 213.07 78.4439 213.071C79.1729 213.071 79.8798 212.82 80.4449 212.358C80.6133 212.227 80.7653 212.077 80.8973 211.909L88.2945 202.849C88.5563 202.531 88.7531 202.165 88.8736 201.77C89.0557 201.168 89.0558 200.525 88.874 199.922C88.6921 199.32 88.3363 198.785 87.8516 198.384Z" fill="#2F2E41"/>
<path d="M52.8397 154.609C51.4835 152.337 50.4221 149.834 50.9259 147.143C51.3758 144.739 53.1009 142.868 55.5816 142.622C57.0754 142.474 58.5622 142.874 60.0212 143.134C61.2172 143.345 62.4326 143.424 63.6458 143.37C66.0867 143.258 68.4795 142.65 70.6784 141.582C72.9104 140.535 74.8928 139.021 76.4924 137.141C78.092 135.262 79.2717 133.061 79.9522 130.686C81.4325 125.283 80.3334 119.148 76.818 114.75L78.0381 114.427L76.4495 119.66C76.4185 119.767 76.3637 119.866 76.2892 119.949C76.2146 120.032 76.1223 120.097 76.0191 120.139C75.9159 120.181 75.8045 120.199 75.6933 120.192C75.5822 120.185 75.4741 120.152 75.3772 120.097C72.4981 118.273 69.2794 117.055 65.9164 116.516C62.5535 115.977 59.1163 116.128 55.8136 116.961C53.9473 117.431 52.1448 118.126 50.4453 119.031C49.6161 119.473 48.8776 118.21 49.7085 117.767C52.9004 116.098 56.397 115.095 59.9867 114.819C63.5763 114.544 67.1845 115.001 70.5929 116.163C72.534 116.827 74.3878 117.723 76.114 118.833L75.0417 119.27L76.6303 114.038C76.6657 113.916 76.7321 113.805 76.823 113.716C76.9139 113.627 77.0263 113.563 77.1491 113.53C77.272 113.498 77.4011 113.498 77.524 113.53C77.6469 113.562 77.7593 113.626 77.8503 113.715C79.4854 115.794 80.6836 118.184 81.3729 120.74C82.0621 123.296 82.2282 125.966 81.8609 128.588C81.506 131.172 80.6103 133.652 79.2325 135.865C77.8546 138.078 76.0258 139.974 73.8659 141.429C71.7082 142.889 69.2831 143.906 66.7308 144.42C64.1786 144.935 61.5499 144.937 58.997 144.426C57.5682 144.15 55.9479 143.756 54.5461 144.356C54.0376 144.602 53.5894 144.957 53.2333 145.396C52.8772 145.835 52.6219 146.348 52.4856 146.897C51.6912 149.596 53.0429 152.158 54.4236 154.402L52.8397 154.609Z" fill="#2F2E41"/>
<path d="M147.856 208.669L123.781 194.701C123.181 194.353 122.512 194.145 121.821 194.092C121.13 194.039 120.437 194.141 119.791 194.393C119.146 194.644 118.565 195.038 118.091 195.545C117.618 196.052 117.264 196.658 117.056 197.321L110.126 219.398L107.235 228.615C106.907 229.655 106.957 230.777 107.374 231.784C107.792 232.791 108.551 233.618 109.517 234.119L114.851 236.895L132.254 245.945C132.912 246.289 133.643 246.468 134.385 246.467C134.933 246.466 135.476 246.369 135.991 246.18L136.025 246.165C136.633 245.932 137.186 245.574 137.647 245.113C138.108 244.653 138.467 244.1 138.702 243.491L149.856 214.339C150.253 213.31 150.27 212.173 149.903 211.133C149.536 210.093 148.81 209.219 147.856 208.669ZM148.946 213.992L137.792 243.145C137.606 243.625 137.322 244.061 136.957 244.425C136.592 244.788 136.155 245.07 135.675 245.253L135.65 245.262C135.173 245.439 134.665 245.514 134.157 245.483C133.649 245.452 133.153 245.315 132.701 245.082L115.488 236.129L109.965 233.255C109.202 232.86 108.602 232.207 108.273 231.411C107.943 230.616 107.905 229.729 108.164 228.908L110.933 220.072L117.98 197.613C118.146 197.091 118.426 196.613 118.8 196.214C119.174 195.815 119.632 195.504 120.141 195.306C120.651 195.107 121.198 195.026 121.742 195.067C122.287 195.109 122.816 195.272 123.29 195.545L147.364 209.513C148.118 209.947 148.693 210.637 148.983 211.459C149.273 212.281 149.26 213.18 148.946 213.992Z" fill="#3F3D56"/>
<path d="M139.778 218.01C139.534 218.01 139.294 217.948 139.081 217.831L123.021 209.049C122.683 208.862 122.431 208.548 122.323 208.177C122.215 207.805 122.258 207.405 122.443 207.065C122.628 206.725 122.94 206.472 123.31 206.362C123.681 206.252 124.079 206.294 124.419 206.478L140.479 215.261C140.764 215.417 140.989 215.663 141.118 215.961C141.248 216.26 141.274 216.593 141.194 216.908C141.114 217.223 140.931 217.503 140.675 217.702C140.418 217.902 140.103 218.01 139.778 218.01Z" fill="#AA0E0D"/>
<path d="M136.858 224.353C136.615 224.352 136.375 224.291 136.161 224.174L120.101 215.391C119.763 215.205 119.512 214.891 119.403 214.519C119.295 214.147 119.338 213.748 119.523 213.408C119.708 213.068 120.02 212.815 120.39 212.705C120.761 212.595 121.16 212.637 121.499 212.821L137.559 221.603C137.844 221.759 138.069 222.006 138.198 222.304C138.328 222.603 138.355 222.936 138.274 223.251C138.194 223.566 138.011 223.846 137.755 224.045C137.498 224.245 137.183 224.353 136.858 224.353Z" fill="#AA0E0D"/>
<path d="M134.425 231.183C134.181 231.183 133.941 231.122 133.727 231.004L117.668 222.222C117.329 222.035 117.078 221.722 116.97 221.35C116.861 220.978 116.905 220.579 117.09 220.238C117.275 219.898 117.586 219.646 117.957 219.536C118.327 219.426 118.726 219.468 119.066 219.652L135.126 228.434C135.41 228.59 135.635 228.837 135.765 229.135C135.895 229.433 135.921 229.766 135.841 230.082C135.761 230.397 135.578 230.676 135.321 230.876C135.065 231.075 134.75 231.184 134.425 231.183Z" fill="#AA0E0D"/>
<path d="M304.253 92.967H236.741C235.77 92.9659 234.84 92.5789 234.154 91.891C233.467 91.203 233.081 90.2702 233.08 89.2973V3.66975C233.081 2.69681 233.467 1.76404 234.154 1.07606C234.84 0.388093 235.77 0.00110669 236.741 0H304.253C305.223 0.00111313 306.154 0.388101 306.84 1.07607C307.526 1.76404 307.912 2.69681 307.913 3.66975V89.2973C307.912 90.2702 307.526 91.203 306.84 91.891C306.154 92.5789 305.223 92.9659 304.253 92.967ZM236.741 0.815502C235.986 0.816351 235.262 1.11734 234.729 1.65243C234.195 2.18752 233.895 2.91301 233.894 3.66975V89.2973C233.895 90.054 234.195 90.7795 234.729 91.3146C235.262 91.8497 235.986 92.1507 236.741 92.1515H304.253C305.008 92.1507 305.731 91.8497 306.265 91.3146C306.799 90.7795 307.099 90.054 307.1 89.2973V3.66975C307.099 2.91302 306.799 2.18752 306.265 1.65243C305.731 1.11734 305.008 0.816352 304.253 0.815502H236.741Z" fill="#3F3D56"/>
<path d="M264.881 41.159H250.02C249.535 41.1585 249.07 40.965 248.726 40.621C248.383 40.277 248.19 39.8106 248.19 39.3241V21.7421C248.19 21.2556 248.383 20.7892 248.726 20.4452C249.07 20.1013 249.535 19.9078 250.02 19.9072H264.881C265.366 19.9078 265.831 20.1013 266.174 20.4452C266.517 20.7892 266.71 21.2556 266.711 21.7421V39.3241C266.71 39.8106 266.517 40.277 266.174 40.621C265.831 40.965 265.366 41.1585 264.881 41.159Z" fill="#AA0E0D"/>
<path d="M293.757 49.314H278.896C278.41 49.3135 277.945 49.12 277.602 48.776C277.259 48.432 277.066 47.9656 277.066 47.4792V29.8971C277.066 29.4107 277.259 28.9443 277.602 28.6003C277.945 28.2563 278.41 28.0628 278.896 28.0623H293.757C294.242 28.0628 294.707 28.2563 295.05 28.6003C295.393 28.9443 295.586 29.4107 295.587 29.8971V47.4792C295.586 47.9656 295.393 48.432 295.05 48.776C294.707 49.12 294.242 49.3135 293.757 49.314Z" fill="#CCCCCC"/>
<path d="M270.575 74.1869H255.714C255.229 74.1863 254.763 73.9928 254.42 73.6488C254.077 73.3048 253.884 72.8385 253.884 72.352V54.7699C253.884 54.2835 254.077 53.8171 254.42 53.4731C254.763 53.1291 255.229 52.9356 255.714 52.9351H270.575C271.06 52.9356 271.525 53.1291 271.868 53.4731C272.211 53.8171 272.404 54.2835 272.405 54.7699V72.352C272.404 72.8384 272.211 73.3048 271.868 73.6488C271.525 73.9928 271.06 74.1863 270.575 74.1869Z" fill="#FF6584"/>
<path d="M216.188 69.8227C215.908 69.1545 215.438 68.5835 214.836 68.1802C214.235 67.777 213.53 67.5593 212.806 67.554H145.293C144.323 67.5545 143.392 67.9412 142.706 68.6292C142.02 69.3172 141.634 70.2501 141.634 71.223V156.851C141.634 157.823 142.02 158.756 142.706 159.444C143.392 160.132 144.323 160.519 145.293 160.52H212.806C213.776 160.518 214.707 160.131 215.393 159.443C216.079 158.756 216.465 157.823 216.466 156.851V71.223C216.467 70.7424 216.373 70.2662 216.188 69.8227ZM215.653 156.851C215.652 157.607 215.352 158.333 214.818 158.868C214.285 159.403 213.561 159.704 212.806 159.705H145.293C144.538 159.705 143.814 159.404 143.28 158.869C142.747 158.333 142.447 157.607 142.446 156.851V71.223C142.447 70.4663 142.748 69.7409 143.281 69.2058C143.815 68.6708 144.539 68.3697 145.293 68.3688H212.806C213.375 68.3709 213.93 68.5429 214.401 68.8627C214.871 69.1825 215.236 69.6356 215.449 70.1643C215.49 70.2696 215.526 70.3771 215.556 70.4863C215.621 70.7265 215.653 70.9742 215.653 71.223V156.851Z" fill="#3F3D56"/>
<path d="M202.097 87.7708H181.762C181.331 87.7708 180.917 87.599 180.612 87.2931C180.307 86.9872 180.136 86.5724 180.136 86.1398C180.136 85.7072 180.307 85.2924 180.612 84.9865C180.917 84.6806 181.331 84.5088 181.762 84.5088H202.097C202.529 84.5088 202.943 84.6806 203.248 84.9865C203.553 85.2924 203.724 85.7072 203.724 86.1398C203.724 86.5724 203.553 86.9872 203.248 87.2931C202.943 87.599 202.529 87.7708 202.097 87.7708Z" fill="#3F3D56"/>
<path d="M202.097 96.3335H181.762C181.331 96.3335 180.917 96.1617 180.612 95.8558C180.307 95.55 180.136 95.1351 180.136 94.7025C180.136 94.27 180.307 93.8551 180.612 93.5493C180.917 93.2434 181.331 93.0715 181.762 93.0715H202.097C202.529 93.0715 202.943 93.2434 203.248 93.5493C203.553 93.8551 203.724 94.27 203.724 94.7025C203.724 95.1351 203.553 95.55 203.248 95.8558C202.943 96.1617 202.529 96.3335 202.097 96.3335Z" fill="#3F3D56"/>
<path d="M171.328 101.209H156.468C155.982 101.209 155.517 101.015 155.174 100.671C154.831 100.327 154.638 99.8609 154.637 99.3744V81.7924C154.638 81.3059 154.831 80.8395 155.174 80.4955C155.517 80.1516 155.982 79.9581 156.468 79.9575H171.328C171.814 79.9581 172.279 80.1516 172.622 80.4955C172.965 80.8395 173.158 81.3059 173.159 81.7924V99.3744C173.158 99.8609 172.965 100.327 172.622 100.671C172.279 101.015 171.814 101.209 171.328 101.209Z" fill="#AA0E0D"/>
<path d="M201.956 113.867H155.999C155.785 113.867 155.574 113.825 155.376 113.743C155.178 113.662 154.999 113.542 154.847 113.39C154.696 113.239 154.576 113.059 154.494 112.861C154.412 112.662 154.37 112.45 154.37 112.236C154.37 112.021 154.412 111.809 154.494 111.611C154.576 111.413 154.696 111.233 154.847 111.081C154.999 110.93 155.178 110.81 155.376 110.728C155.574 110.646 155.785 110.604 155.999 110.605H201.956C202.387 110.605 202.801 110.778 203.105 111.083C203.409 111.389 203.58 111.804 203.58 112.236C203.58 112.668 203.409 113.082 203.105 113.388C202.801 113.694 202.387 113.866 201.956 113.867Z" fill="#CCCCCC"/>
<path d="M201.956 122.429H155.999C155.785 122.43 155.574 122.388 155.376 122.306C155.178 122.224 154.999 122.104 154.847 121.953C154.696 121.801 154.576 121.621 154.494 121.423C154.412 121.225 154.37 121.013 154.37 120.798C154.37 120.584 154.412 120.372 154.494 120.174C154.576 119.976 154.696 119.796 154.847 119.644C154.999 119.493 155.178 119.373 155.376 119.291C155.574 119.209 155.785 119.167 155.999 119.167H201.956C202.388 119.167 202.802 119.339 203.107 119.645C203.412 119.951 203.583 120.366 203.583 120.798C203.583 121.231 203.412 121.646 203.107 121.952C202.802 122.258 202.388 122.429 201.956 122.429Z" fill="#CCCCCC"/>
<path d="M201.956 130.992H155.999C155.785 130.993 155.574 130.951 155.376 130.869C155.178 130.787 154.999 130.667 154.847 130.516C154.696 130.364 154.576 130.184 154.494 129.986C154.412 129.788 154.37 129.576 154.37 129.361C154.37 129.147 154.412 128.934 154.494 128.736C154.576 128.538 154.696 128.358 154.847 128.207C154.999 128.055 155.178 127.935 155.376 127.854C155.574 127.772 155.785 127.73 155.999 127.73H201.956C202.388 127.73 202.802 127.902 203.107 128.208C203.412 128.514 203.583 128.929 203.583 129.361C203.583 129.794 203.412 130.209 203.107 130.515C202.802 130.82 202.388 130.992 201.956 130.992Z" fill="#CCCCCC"/>
<path d="M201.956 139.555H155.999C155.785 139.555 155.574 139.513 155.376 139.432C155.178 139.35 154.999 139.23 154.847 139.078C154.696 138.927 154.576 138.747 154.494 138.549C154.412 138.351 154.37 138.138 154.37 137.924C154.37 137.71 154.412 137.497 154.494 137.299C154.576 137.101 154.696 136.921 154.847 136.77C154.999 136.618 155.178 136.498 155.376 136.416C155.574 136.335 155.785 136.293 155.999 136.293H201.956C202.388 136.293 202.802 136.465 203.107 136.771C203.412 137.077 203.583 137.491 203.583 137.924C203.583 138.357 203.412 138.771 203.107 139.077C202.802 139.383 202.388 139.555 201.956 139.555Z" fill="#CCCCCC"/>
<path d="M201.956 148.118H155.999C155.785 148.118 155.574 148.076 155.376 147.995C155.178 147.913 154.999 147.793 154.847 147.641C154.696 147.49 154.576 147.31 154.494 147.112C154.412 146.914 154.37 146.701 154.37 146.487C154.37 146.273 154.412 146.06 154.494 145.862C154.576 145.664 154.696 145.484 154.847 145.333C154.999 145.181 155.178 145.061 155.376 144.979C155.574 144.897 155.785 144.856 155.999 144.856H201.956C202.387 144.857 202.801 145.029 203.105 145.335C203.409 145.64 203.58 146.055 203.58 146.487C203.58 146.919 203.409 147.333 203.105 147.639C202.801 147.945 202.387 148.117 201.956 148.118Z" fill="#CCCCCC"/>
<path d="M267.362 102.318L228.875 139.055L229.436 139.646L267.923 102.909L267.362 102.318Z" fill="#E6E6E6"/>
<path d="M228.516 139.96L233.401 139.902L233.392 139.086L229.381 139.134L229.626 135.121L228.813 135.072L228.516 139.96Z" fill="#E6E6E6"/>
<path d="M268.281 102.003L267.984 106.892L267.171 106.843L267.416 102.829L263.405 102.877L263.397 102.062L268.281 102.003Z" fill="#E6E6E6"/>
<path d="M248.399 125.468C250.87 125.468 252.873 123.459 252.873 120.982C252.873 118.505 250.87 116.497 248.399 116.497C245.928 116.497 243.925 118.505 243.925 120.982C243.925 123.459 245.928 125.468 248.399 125.468Z" fill="#E6E6E6"/>
<path d="M215.777 15.4713L177.29 52.208L177.851 52.7987L216.338 16.062L215.777 15.4713Z" fill="#E6E6E6"/>
<path d="M176.931 53.1125L181.816 53.0549L181.807 52.2386L177.796 52.2869L178.041 48.2734L177.229 48.2241L176.931 53.1125Z" fill="#E6E6E6"/>
<path d="M216.696 15.1558L216.399 20.0446L215.586 19.9958L215.831 15.9818L211.821 16.0301L211.812 15.2143L216.696 15.1558Z" fill="#E6E6E6"/>
<path d="M196.814 38.6202C199.285 38.6202 201.288 36.612 201.288 34.1349C201.288 31.6578 199.285 29.6497 196.814 29.6497C194.343 29.6497 192.34 31.6578 192.34 34.1349C192.34 36.612 194.343 38.6202 196.814 38.6202Z" fill="#E6E6E6"/>
<path d="M369.821 254.157H368.848V258.548H369.821V254.157Z" fill="#3F3D56"/>
</g>
<defs>
<clipPath id="clip0_5501_660">
<rect width="435" height="315" fill="white"/>
</clipPath>
</defs>
</svg>
