<svg width="142" height="92" viewBox="0 0 142 92" fill="none" xmlns="http://www.w3.org/2000/svg">
<g clip-path="url(#clip0_5501_633)">
<path d="M129.519 91.7278L125.463 79.4977C125.463 79.4977 129.924 83.9554 129.924 87.613L129.124 79.1548C129.124 79.1548 131.411 82.2409 131.183 86.9272C130.954 91.6135 129.519 91.7278 129.519 91.7278Z" fill="#E6E6E6"/>
<path d="M42.424 80.5918L38.4658 68.6557C38.4658 68.6557 42.8196 73.0062 42.8196 76.5759L42.0381 68.321C42.0381 68.321 44.2708 71.333 44.0475 75.9066C43.8243 80.4802 42.424 80.5918 42.424 80.5918Z" fill="#E6E6E6"/>
<path d="M104.204 86.0997C104.211 93.9515 88.6261 91.5363 69.547 91.5528C50.4679 91.5693 35.1191 94.0111 35.1123 86.1593C35.1055 78.3075 50.6843 76.5864 69.7635 76.5699C88.8426 76.5535 104.197 78.2479 104.204 86.0997Z" fill="#E6E6E6"/>
<path d="M142 91.5483H0V91.9076H142V91.5483Z" fill="#3F3D56"/>
<path d="M90.8325 75.4959H88.3382L87.1511 65.8821H90.8325V75.4959Z" fill="#A0616A"/>
<path d="M86.2795 74.7839H91.3671V77.8105H83.5278V77.5337C83.5278 76.8044 83.8177 76.105 84.3337 75.5893C84.8498 75.0736 85.5497 74.7839 86.2795 74.7839Z" fill="#2F2E41"/>
<path d="M109.167 89.6854H106.672L105.485 80.0715H109.167V89.6854Z" fill="#A0616A"/>
<path d="M104.614 88.9734H109.701V92H101.862V91.7231C101.862 90.9938 102.152 90.2944 102.668 89.7788C103.184 89.2631 103.884 88.9734 104.614 88.9734Z" fill="#2F2E41"/>
<path d="M120.672 61.1245C120.845 60.9156 120.969 60.6713 121.037 60.409C121.105 60.1468 121.114 59.8728 121.064 59.6065C121.015 59.3402 120.907 59.088 120.75 58.8677C120.592 58.6474 120.388 58.4643 120.152 58.3314L114.358 34.7493L110.654 36.3418L117.545 59.1437C117.348 59.555 117.308 60.0243 117.434 60.4626C117.56 60.901 117.843 61.278 118.228 61.5221C118.613 61.7663 119.075 61.8607 119.526 61.7874C119.976 61.7141 120.384 61.4783 120.672 61.1245Z" fill="#A0616A"/>
<path d="M116.154 13.4645C115.947 13.2485 115.695 13.0805 115.417 12.9722C115.138 12.8639 114.839 12.818 114.54 12.8377C114.242 12.8574 113.951 12.9423 113.689 13.0864C113.427 13.2304 113.2 13.4302 113.023 13.6715L104.057 14.7001L105.421 18.1562L113.575 16.6311C114.001 16.9005 114.51 17.0046 115.007 16.9237C115.504 16.8428 115.954 16.5825 116.272 16.1922C116.59 15.8018 116.753 15.3086 116.732 14.8058C116.71 14.3031 116.504 13.8258 116.154 13.4645Z" fill="#A0616A"/>
<path d="M101.377 58.6788L105.29 88.0232L110.16 87.0213C110.16 87.0213 109.444 65.6505 111.879 63.0742C114.314 60.4979 108.747 55.9846 108.747 55.9846L101.377 58.6788Z" fill="#2F2E41"/>
<path d="M102.995 50.5961L101.197 53.2903C101.197 53.2903 87.3569 47.5428 87.3569 56.703C87.3569 65.8632 86.5649 72.0797 86.2785 72.5091C85.992 72.9384 89.5926 74.0526 91.3114 73.7664C91.3114 73.7664 93.4318 58.9987 93.2886 58.1399C93.2886 58.1399 106.866 64.7916 109.444 64.2191C112.022 63.6466 112.631 61.6199 113.061 60.4749C113.49 59.3299 112.881 50.2369 112.881 50.2369L104.287 47.6162L102.995 50.5961Z" fill="#2F2E41"/>
<path d="M103.237 34.4201L102.725 33.8058C102.725 33.8058 96.9869 20.9044 99.2412 17.4231C101.495 13.9417 111.332 13.4298 111.64 13.6346C111.947 13.8394 110.906 16.4981 111.623 17.7268C111.623 17.7268 104.003 19.3777 103.49 19.5825C102.978 19.7873 107.439 27.3551 107.439 27.3551L106.926 31.9627L103.237 34.4201Z" fill="#CCCCCC"/>
<path d="M113.279 28.0717C113.279 28.0717 107.951 28.6861 107.746 28.6861C107.541 28.6861 107.439 27.355 107.439 27.355L102.725 33.8057C102.725 33.8057 100.403 52.5199 101.018 52.2127C101.633 51.9055 112.972 53.6697 113.074 52.8506C113.177 52.0314 112.972 47.9357 113.279 47.731C113.587 47.5262 118.608 34.8296 118.608 34.8296C118.608 34.8296 118.095 32.1674 116.353 31.2459C114.611 30.3243 113.279 28.0717 113.279 28.0717Z" fill="#CCCCCC"/>
<path d="M116.968 33.0889L118.608 34.8295C118.608 34.8295 121.043 54.8314 119.711 55.4457C118.379 56.0601 115.757 55.9846 115.757 55.9846L113.177 46.5022L116.968 33.0889Z" fill="#CCCCCC"/>
<path d="M108.159 26.8051C110.764 26.8051 112.875 24.6951 112.875 22.0923C112.875 19.4894 110.764 17.3794 108.159 17.3794C105.554 17.3794 103.443 19.4894 103.443 22.0923C103.443 24.6951 105.554 26.8051 108.159 26.8051Z" fill="#A0616A"/>
<path d="M107.052 22.8276C106.989 21.8497 105.754 21.8162 104.773 21.8069C103.793 21.7977 102.62 21.8327 102.065 21.0246C101.699 20.4906 101.769 19.7493 102.072 19.1768C102.375 18.6043 102.873 18.164 103.363 17.7403C104.629 16.6467 105.933 15.5617 107.453 14.8617C108.972 14.1617 110.753 13.8789 112.329 14.4408C114.265 15.1311 116.882 18.6844 117.108 20.7258C117.334 22.7673 116.517 24.8484 115.141 26.374C113.765 27.8995 110.615 27.284 108.632 27.8267C109.837 26.1222 109.043 23.0251 107.112 22.2292L107.052 22.8276Z" fill="#2F2E41"/>
<path d="M65.0184 83.789C71.2714 83.789 76.3405 78.7236 76.3405 72.4752C76.3405 66.2267 71.2714 61.1614 65.0184 61.1614C58.7653 61.1614 53.6962 66.2267 53.6962 72.4752C53.6962 78.7236 58.7653 83.789 65.0184 83.789Z" fill="#AA0E0D"/>
<path d="M57.4572 60.3575C55.888 60.3576 54.3525 59.9032 53.0364 59.0493C51.7203 58.1954 50.6801 56.9787 50.0417 55.5463L32.0756 15.1165C31.4804 13.7773 31.1657 12.3306 31.1507 10.8653C31.1356 9.40006 31.4206 7.9472 31.9882 6.59606C32.5557 5.24491 33.3938 4.02402 34.4509 3.00844C35.508 1.99285 36.7618 1.20403 38.1352 0.690451C39.5086 0.176872 40.9726 -0.0506112 42.4372 0.0219864C43.9018 0.094584 45.3361 0.465728 46.6519 1.1126C47.9677 1.75948 49.1372 2.66842 50.0886 3.78356C51.0399 4.8987 51.7529 6.19647 52.1839 7.59711L65.1935 49.8805C65.5659 51.0908 65.6491 52.3716 65.4364 53.6198C65.2237 54.8681 64.721 56.0491 63.9686 57.068C63.2162 58.0868 62.2352 58.9152 61.1044 59.4865C59.9735 60.0578 58.7243 60.3561 57.4572 60.3575Z" fill="#AA0E0D"/>
</g>
<defs>
<clipPath id="clip0_5501_633">
<rect width="142" height="92" fill="white"/>
</clipPath>
</defs>
</svg>
