<svg width="529" height="337" viewBox="0 0 529 337" fill="none" xmlns="http://www.w3.org/2000/svg">
<g clip-path="url(#clip0_5501_597)">
<path d="M437.994 336.519L439.426 336.491C438.872 320.478 437.174 304.527 434.344 288.759C428.153 255.001 417.859 232.83 403.747 222.863L402.925 224.041C435.89 247.324 437.978 335.63 437.994 336.519Z" fill="#2F2E41"/>
<path d="M420.099 336.175L421.53 336.147C421.499 334.552 420.605 296.964 405.894 286.575L405.072 287.753C419.189 297.723 420.092 335.792 420.099 336.175Z" fill="#2F2E41"/>
<path d="M394.78 224.172C398.734 224.172 401.938 220.948 401.938 216.971C401.938 212.994 398.734 209.77 394.78 209.77C390.827 209.77 387.622 212.994 387.622 216.971C387.622 220.948 390.827 224.172 394.78 224.172Z" fill="#AA0E0D"/>
<path d="M398.325 286.099C402.279 286.099 405.483 282.875 405.483 278.898C405.483 274.922 402.279 271.698 398.325 271.698C394.372 271.698 391.167 274.922 391.167 278.898C391.167 282.875 394.372 286.099 398.325 286.099Z" fill="#AA0E0D"/>
<path d="M423.435 228.489C422.09 237.133 425.596 244.864 425.596 244.864C425.596 244.864 431.284 238.581 432.629 229.937C433.974 221.293 430.468 213.561 430.468 213.561C430.468 213.561 424.78 219.845 423.435 228.489Z" fill="#2F2E41"/>
<path d="M400.037 249.482C408.264 252.321 416.443 250.194 416.443 250.194C416.443 250.194 411.283 243.466 403.056 240.627C394.829 237.788 386.65 239.915 386.65 239.915C386.65 239.915 391.81 246.643 400.037 249.482Z" fill="#2F2E41"/>
<path d="M399.772 304.324C403.496 305.501 407.461 305.673 411.272 304.824C408.852 301.725 405.594 299.396 401.889 298.118C398.184 296.84 394.19 296.666 390.389 297.619C392.879 300.642 396.115 302.954 399.772 304.324Z" fill="#2F2E41"/>
<path d="M232.715 111.755L186.563 87.6139C186.563 87.6139 171.065 70.4448 161.331 62.6897C151.598 54.9347 148.602 60.6318 148.602 60.6318L144.51 67.4916L154.398 81.3257L181.107 104.078L228.832 122.882C229.578 124.111 230.656 125.102 231.94 125.74C233.224 126.377 234.662 126.636 236.086 126.484C237.51 126.333 238.862 125.778 239.985 124.884C241.109 123.99 241.957 122.794 242.431 121.435C242.905 120.076 242.986 118.609 242.665 117.205C242.344 115.801 241.633 114.518 240.616 113.505C239.598 112.491 238.315 111.788 236.917 111.479C235.518 111.169 234.061 111.265 232.715 111.755Z" fill="#9F616A"/>
<path d="M112.67 90.876L109.937 74.0604L102.222 72.1202C102.222 72.1202 96.0991 70.2229 94.6679 82.6299C93.2367 95.0369 94.3463 118.201 94.3463 118.201L78.6819 168.1C77.3789 168.71 76.2749 169.679 75.4985 170.896C74.722 172.112 74.305 173.525 74.2961 174.971C74.2872 176.416 74.6867 177.835 75.4481 179.061C76.2095 180.287 77.3015 181.27 78.5968 181.896C79.8922 182.522 81.3377 182.765 82.7649 182.596C84.1922 182.428 85.5425 181.855 86.6586 180.944C87.7747 180.033 88.6107 178.823 89.0692 177.453C89.5277 176.083 89.5899 174.61 89.2485 173.205L109.777 125.962L112.67 90.876Z" fill="#9F616A"/>
<path d="M176.485 326.858L186.58 326.857L191.383 287.685L176.483 287.686L176.485 326.858Z" fill="#9F616A"/>
<path d="M173.909 323.542L193.792 323.541H193.793C197.153 323.541 200.376 324.884 202.752 327.274C205.128 329.665 206.463 332.906 206.463 336.287V336.701L173.91 336.702L173.909 323.542Z" fill="#2F2E41"/>
<path d="M66.3691 326.858L76.4652 326.857L81.2677 287.685L66.3677 287.686L66.3691 326.858Z" fill="#9F616A"/>
<path d="M63.7941 323.542L83.6764 323.541H83.6772C87.0376 323.541 90.2603 324.884 92.6364 327.274C95.0126 329.665 96.3476 332.906 96.3478 336.287V336.701L63.7947 336.702L63.7941 323.542Z" fill="#2F2E41"/>
<path d="M116.21 57.2854L99.4651 71.6651L113.208 115.412L116.308 125.181C116.308 125.181 97.3745 142.742 85.6593 191.798C73.9442 240.853 54.7796 306.037 54.7796 306.037L95.2328 317.685L128.144 206.716L166.856 293.775L171.325 319.525L205.775 309.307L197.649 244.728L157.017 132.941L161.238 103.308C161.238 103.308 167.576 88.5174 156.565 72.8581L153.112 58.1439L140.74 55.0785L116.21 57.2854Z" fill="#2F2E41"/>
<path d="M144.029 49.4682H98.7562C97.8249 49.4672 96.9321 49.0946 96.2736 48.4321C95.615 47.7697 95.2446 46.8716 95.2436 45.9348V26.3045C95.2436 19.3281 97.9986 12.6375 102.903 7.70442C107.806 2.77136 114.458 0 121.393 0C128.328 0 134.979 2.77136 139.883 7.70442C144.787 12.6375 147.542 19.3281 147.542 26.3045V45.9348C147.541 46.8716 147.17 47.7697 146.512 48.4321C145.853 49.0946 144.961 49.4672 144.029 49.4682Z" fill="#2F2E41"/>
<path d="M143.588 38.9762C148.667 29.6303 145.253 17.9124 135.962 12.8035C126.671 7.69455 115.023 11.1293 109.944 20.4751C104.865 29.821 108.28 41.5389 117.57 46.6478C126.861 51.7568 138.51 48.322 143.588 38.9762Z" fill="#9F616A"/>
<path d="M153.728 28.2676H126.045L125.761 24.2694L124.341 28.2676H120.079L119.516 20.3434L116.703 28.2676H108.455V27.8749C108.461 22.3582 110.642 17.0692 114.52 13.1683C118.398 9.2674 123.656 7.07313 129.14 7.06689H133.043C138.527 7.07312 143.785 9.26739 147.663 13.1683C151.541 17.0692 153.722 22.3582 153.728 27.8749V28.2676Z" fill="#2F2E41"/>
<path d="M125.818 53.1326C125.61 53.1324 125.402 53.114 125.197 53.0774L104.925 49.4796V15.7784H127.24L126.688 16.4264C119.001 25.444 124.792 40.0663 128.928 47.9797C129.233 48.5593 129.369 49.2137 129.32 49.8676C129.271 50.5215 129.04 51.1482 128.653 51.6757C128.329 52.1268 127.903 52.494 127.41 52.7473C126.917 53.0005 126.372 53.1326 125.818 53.1326Z" fill="#2F2E41"/>
<path d="M293.458 229.812L115.802 292.997C111.41 294.554 106.583 294.294 102.38 292.275C98.1777 290.256 94.943 286.643 93.3856 282.228L62.8668 195.396C61.3194 190.978 61.5775 186.122 63.5846 181.895C65.5916 177.667 69.1836 174.413 73.5726 172.847L251.229 109.661C255.621 108.105 260.448 108.364 264.651 110.383C268.853 112.402 272.088 116.016 273.645 120.431L304.164 207.263C305.711 211.681 305.453 216.537 303.446 220.764C301.439 224.992 297.847 228.246 293.458 229.812Z" fill="white"/>
<path d="M304.164 207.262L304.325 207.722C305.808 211.942 305.563 216.581 303.645 220.619C301.727 224.658 298.293 227.764 294.098 229.255L115.554 292.756C111.36 294.247 106.749 294.002 102.735 292.073C98.7208 290.145 95.6327 286.692 94.1495 282.473L93.988 282.014L304.164 207.262Z" fill="#F2F2F2"/>
<path d="M104.715 193.007C92.9395 200.802 77.8471 194.936 72.5688 186.391L73.4103 185.91C83.4356 179.624 98.3238 183.126 104.715 193.007Z" fill="#AA0E0D"/>
<path d="M252.285 215.122C249.402 216.147 246.807 216.1 244.57 214.982C239.515 212.455 237.142 204.963 235.236 198.942C234.681 197.191 234.157 195.536 233.624 194.184L233.616 194.163C232.688 191.481 232.85 188.538 234.066 185.975C235.282 183.412 237.455 181.435 240.112 180.473L264.008 171.974C266.886 170.951 269.479 170.997 271.714 172.113C276.768 174.637 279.143 182.127 281.051 188.145C281.607 189.9 282.132 191.558 282.668 192.912C283.601 195.597 283.442 198.545 282.227 201.113C281.011 203.681 278.836 205.662 276.175 206.625L252.285 215.122ZM234.618 193.799C235.163 195.184 235.691 196.852 236.25 198.617C238.095 204.445 240.392 211.698 245.044 214.023C247.041 215.021 249.293 215.05 251.93 214.112L275.819 205.616C278.212 204.75 280.169 202.97 281.264 200.662C282.36 198.353 282.506 195.703 281.671 193.287C281.129 191.919 280.598 190.244 280.036 188.471C278.189 182.645 275.891 175.394 271.24 173.073C269.246 172.076 266.996 172.048 264.363 172.984L240.468 181.482C238.078 182.348 236.123 184.126 235.028 186.432C233.932 188.738 233.785 191.385 234.618 193.799Z" fill="#3F3D56"/>
<path d="M99.7627 195.814C95.5636 197.279 91.0402 197.529 86.7068 196.536C80.3784 195.138 74.6351 191.337 71.7185 186.617L71.4261 186.144L72.7396 185.393C82.9156 179.017 98.175 182.473 104.762 192.653L105.05 193.099L104.608 193.392C103.096 194.394 101.469 195.207 99.7627 195.814ZM72.9237 186.519C75.778 190.786 81.0895 194.198 86.9352 195.49C92.6176 196.825 98.5941 195.855 103.571 192.789C97.1277 183.414 82.8533 180.305 73.2939 186.307L72.9237 186.519Z" fill="#3F3D56"/>
<path d="M106.004 258.136C104.512 258.73 102.888 258.904 101.305 258.64C99.7221 258.375 98.2408 257.683 97.0198 256.635C95.5907 255.379 94.5074 253.773 93.8741 251.974C93.2409 250.174 93.0791 248.24 93.4044 246.359C93.7066 244.741 94.4483 243.238 95.5474 242.017C96.6464 240.797 98.06 239.906 99.6313 239.444L131.471 228.12C132.982 227.49 134.636 227.292 136.252 227.548C137.868 227.804 139.382 228.503 140.628 229.57C142.056 230.827 143.139 232.432 143.771 234.232C144.404 236.032 144.565 237.965 144.239 239.846C143.61 243.151 141.392 245.586 138.011 246.751L106.17 258.076C106.115 258.096 106.059 258.116 106.004 258.136ZM99.8293 240.508C98.4708 240.93 97.2522 241.716 96.3044 242.783C95.3567 243.849 94.7157 245.155 94.4502 246.56C94.1572 248.254 94.3029 249.996 94.8734 251.618C95.4439 253.239 96.4199 254.686 97.7074 255.818C98.8111 256.758 100.152 257.373 101.582 257.594C103.012 257.815 104.475 257.633 105.808 257.068L137.663 245.739C139.054 245.335 140.307 244.552 141.283 243.477C142.259 242.401 142.92 241.075 143.193 239.645C143.487 237.95 143.342 236.209 142.772 234.587C142.202 232.966 141.227 231.519 139.94 230.387C138.834 229.447 137.493 228.832 136.062 228.61C134.632 228.388 133.168 228.567 131.833 229.127L99.9756 240.458C99.9267 240.474 99.8777 240.491 99.8293 240.508Z" fill="#3F3D56"/>
<path d="M252.498 189.574L242.461 193.144C241.795 193.38 241.063 193.341 240.426 193.035C239.79 192.729 239.3 192.181 239.064 191.512C238.829 190.842 238.868 190.106 239.172 189.466C239.476 188.825 240.021 188.332 240.686 188.095L250.723 184.525C251.389 184.289 252.121 184.328 252.758 184.634C253.394 184.94 253.885 185.488 254.12 186.157C254.355 186.827 254.316 187.563 254.012 188.203C253.708 188.844 253.163 189.337 252.498 189.574Z" fill="#AA0E0D"/>
<path d="M255.337 197.651L245.3 201.221C244.634 201.458 243.902 201.419 243.265 201.113C242.628 200.807 242.138 200.259 241.903 199.589C241.668 198.92 241.707 198.184 242.011 197.543C242.315 196.902 242.86 196.409 243.525 196.173L253.562 192.603C254.228 192.366 254.959 192.405 255.596 192.711C256.233 193.017 256.723 193.565 256.959 194.235C257.194 194.904 257.155 195.64 256.851 196.281C256.547 196.922 256.002 197.414 255.337 197.651Z" fill="#AA0E0D"/>
<path d="M258.176 205.729L248.139 209.298C247.809 209.416 247.46 209.466 247.111 209.448C246.762 209.429 246.42 209.342 246.104 209.19C245.789 209.039 245.506 208.826 245.273 208.565C245.039 208.303 244.859 207.998 244.742 207.667C244.626 207.335 244.575 206.984 244.594 206.633C244.612 206.282 244.699 205.938 244.85 205.62C245 205.303 245.212 205.019 245.471 204.784C245.731 204.549 246.035 204.367 246.364 204.25L256.401 200.68C256.731 200.563 257.08 200.512 257.429 200.531C257.778 200.549 258.12 200.637 258.435 200.788C258.751 200.94 259.033 201.152 259.267 201.414C259.501 201.675 259.681 201.98 259.798 202.312C259.914 202.643 259.965 202.995 259.946 203.346C259.928 203.697 259.841 204.041 259.69 204.358C259.539 204.675 259.328 204.96 259.068 205.195C258.808 205.43 258.505 205.611 258.176 205.729Z" fill="#AA0E0D"/>
<path d="M270.063 183.327L260.025 186.896C259.696 187.014 259.347 187.064 258.998 187.046C258.649 187.027 258.307 186.94 257.991 186.788C257.676 186.637 257.393 186.424 257.16 186.163C256.926 185.901 256.746 185.596 256.629 185.265C256.513 184.933 256.462 184.582 256.481 184.231C256.499 183.88 256.586 183.536 256.737 183.219C256.887 182.901 257.099 182.617 257.358 182.382C257.618 182.147 257.922 181.965 258.251 181.848L268.288 178.278C268.954 178.042 269.685 178.081 270.322 178.387C270.959 178.693 271.449 179.241 271.685 179.91C271.92 180.58 271.881 181.316 271.577 181.956C271.273 182.597 270.728 183.09 270.063 183.327Z" fill="#AA0E0D"/>
<path d="M272.901 191.404L262.864 194.974C262.535 195.091 262.186 195.142 261.837 195.123C261.488 195.105 261.146 195.017 260.83 194.866C260.515 194.714 260.232 194.502 259.999 194.24C259.765 193.979 259.585 193.674 259.468 193.342C259.352 193.011 259.301 192.659 259.32 192.308C259.338 191.957 259.425 191.613 259.576 191.296C259.726 190.979 259.938 190.694 260.197 190.459C260.457 190.224 260.761 190.043 261.09 189.926L271.127 186.356C271.457 186.239 271.806 186.188 272.155 186.206C272.504 186.225 272.846 186.312 273.161 186.464C273.477 186.616 273.759 186.828 273.993 187.089C274.227 187.351 274.407 187.656 274.524 187.987C274.64 188.319 274.691 188.67 274.672 189.021C274.654 189.372 274.567 189.716 274.416 190.034C274.265 190.351 274.054 190.635 273.794 190.87C273.534 191.106 273.231 191.287 272.901 191.404Z" fill="#AA0E0D"/>
<path d="M275.74 199.481L265.703 203.051C265.038 203.288 264.306 203.249 263.669 202.943C263.032 202.637 262.542 202.089 262.307 201.419C262.072 200.75 262.11 200.014 262.415 199.373C262.719 198.732 263.264 198.239 263.929 198.003L273.966 194.433C274.296 194.316 274.645 194.265 274.994 194.284C275.343 194.302 275.685 194.39 276 194.541C276.316 194.693 276.598 194.905 276.832 195.167C277.066 195.428 277.246 195.733 277.363 196.065C277.479 196.396 277.53 196.748 277.511 197.099C277.493 197.45 277.406 197.794 277.255 198.111C277.104 198.428 276.893 198.713 276.633 198.948C276.373 199.183 276.07 199.364 275.74 199.481Z" fill="#AA0E0D"/>
<path d="M280.29 139.333L70.1138 214.084L70.4686 215.094L280.645 140.342L280.29 139.333Z" fill="#3F3D56"/>
<path d="M293.458 229.812L115.802 292.997C111.41 294.554 106.583 294.294 102.38 292.275C98.1777 290.256 94.943 286.643 93.3856 282.228L62.8668 195.396C61.3194 190.978 61.5775 186.122 63.5846 181.895C65.5916 177.667 69.1836 174.413 73.5726 172.847L251.229 109.661C255.621 108.105 260.448 108.364 264.651 110.383C268.853 112.402 272.088 116.016 273.645 120.431L304.164 207.263C305.711 211.681 305.453 216.537 303.446 220.764C301.439 224.992 297.847 228.246 293.458 229.812ZM73.9275 173.856C69.8045 175.328 66.4302 178.385 64.5448 182.356C62.6594 186.327 62.4169 190.888 63.8706 195.039L94.3893 281.871C95.8523 286.018 98.891 289.413 102.839 291.309C106.787 293.206 111.321 293.45 115.447 291.988L293.103 228.803C297.226 227.331 300.601 224.274 302.486 220.303C304.371 216.332 304.614 211.77 303.16 207.619L272.641 120.788C271.178 116.64 268.14 113.246 264.192 111.349C260.244 109.453 255.71 109.209 251.584 110.671L73.9275 173.856Z" fill="#3F3D56"/>
<path d="M528.284 337H0.715832C0.525982 337 0.343906 336.924 0.209662 336.789C0.0754173 336.654 0 336.471 0 336.28C0 336.089 0.0754173 335.906 0.209662 335.771C0.343906 335.636 0.525982 335.56 0.715832 335.56H528.284C528.474 335.56 528.656 335.636 528.79 335.771C528.925 335.906 529 336.089 529 336.28C529 336.471 528.925 336.654 528.79 336.789C528.656 336.924 528.474 337 528.284 337Z" fill="#CBCBCB"/>
</g>
<defs>
<clipPath id="clip0_5501_597">
<rect width="529" height="337" fill="white"/>
</clipPath>
</defs>
</svg>
